/* XPM */
static char *_7008_fd214501e2a9472f99945fce16c1483cf22b6a7d7f346bb6144af65542509e6e[] = {
/* columns rows colors chars-per-pixel */
"64 64 187 2 ",
"   c #000000",
".  c #0B0404",
"X  c #0B0807",
"o  c #0D0A09",
"O  c #070807",
"+  c #110201",
"@  c #1D0201",
"#  c #110E0C",
"$  c #190B07",
"%  c #00100E",
"&  c #17100E",
"*  c #041514",
"=  c #1D1816",
"-  c #220504",
";  c #210907",
":  c #230D0C",
">  c #2C0E0D",
",  c #2A0000",
"<  c #3E0000",
"1  c #24100F",
"2  c #28100F",
"3  c #350F10",
"4  c #241412",
"5  c #281613",
"6  c #231D1C",
"7  c #211817",
"8  c #3C1614",
"9  c #351716",
"0  c #24201F",
"q  c #2F211F",
"w  c #262422",
"e  c #292624",
"r  c #2E2B29",
"t  c #292927",
"y  c #312E2B",
"u  c #392B2A",
"i  c #363332",
"p  c #393532",
"a  c #3E3C3A",
"s  c #430000",
"d  c #4C0000",
"f  c #510006",
"g  c #55080B",
"h  c #530F12",
"j  c #421416",
"k  c #4B1C1C",
"l  c #461A19",
"z  c #521D1D",
"x  c #5A1D1E",
"c  c #581516",
"v  c #600B05",
"b  c #731616",
"n  c #57201F",
"m  c #531F20",
"M  c #4D2826",
"N  c #532020",
"B  c #5D2525",
"V  c #5D2A29",
"C  c #522F2E",
"Z  c #423E3C",
"A  c #612626",
"S  c #622827",
"D  c #612A2A",
"F  c #662B2B",
"G  c #702E2D",
"H  c #63302F",
"J  c #643130",
"K  c #6F3A36",
"L  c #693A38",
"P  c #723B38",
"I  c #46423F",
"U  c #76433E",
"Y  c #37514E",
"T  c #474341",
"R  c #4B4745",
"E  c #4C4845",
"W  c #4E4B48",
"Q  c #524E4B",
"!  c #5A4C48",
"~  c #54514E",
"^  c #415350",
"/  c #5A5552",
"(  c #5D5856",
")  c #5B5B5A",
"_  c #7D4D49",
"`  c #7A4440",
"'  c #6A5652",
"]  c #625957",
"[  c #6C5854",
"{  c #625D5A",
"}  c #755D58",
"|  c #6C6663",
" . c #6F6967",
".. c #756966",
"X. c #7A7470",
"o. c #80302F",
"O. c #823635",
"+. c #833837",
"@. c #8B3E3B",
"#. c #84413D",
"$. c #95423F",
"%. c #844E4B",
"&. c #9B4745",
"*. c #9B4946",
"=. c #964947",
"-. c #80524E",
";. c #855753",
":. c #865853",
">. c #A24643",
",. c #A54C4A",
"<. c #AC4E4C",
"1. c #AD504E",
"2. c #B5504D",
"3. c #BA5552",
"4. c #B35351",
"5. c #B44946",
"6. c #9B615F",
"7. c #9C7D77",
"8. c #A96966",
"9. c #BD6965",
"0. c #AF7875",
"q. c #C75B58",
"w. c #F65C58",
"e. c #CC615D",
"r. c #D0605D",
"t. c #F6615D",
"y. c #CF6965",
"u. c #E46D69",
"i. c #EC6F6B",
"p. c #F66B67",
"a. c #F66D69",
"s. c #FA6A66",
"d. c #EB716D",
"f. c #F7726D",
"g. c #FB726E",
"h. c #F77772",
"j. c #FC7671",
"k. c #F77974",
"l. c #FD7A75",
"z. c #F77E79",
"x. c #FD7E79",
"c. c #9C817B",
"v. c #96827C",
"b. c #A1847E",
"n. c #D8847E",
"m. c #F9817C",
"M. c #F6807B",
"N. c #B58E88",
"B. c #AC918A",
"V. c #B1948D",
"C. c #BD958D",
"Z. c #B49791",
"A. c #B5A19C",
"S. c #CC8781",
"D. c #F88681",
"F. c #F98C86",
"G. c #F98E89",
"H. c #F9928C",
"J. c #FA9B95",
"K. c #FC9F98",
"L. c #FA9690",
"P. c #CDA49D",
"I. c #DAA099",
"U. c #FAA19B",
"Y. c #D0AFA7",
"T. c #CDB2AB",
"R. c #DCB4AC",
"E. c #D0B3AC",
"W. c #FAA7A0",
"Q. c #FBACA5",
"!. c #FCAFA8",
"~. c #E0B7AF",
"^. c #FCB3AB",
"/. c #E2BAB2",
"(. c #FDBBB3",
"). c #FCB7B0",
"_. c #EDC4BC",
"`. c #EFC8BF",
"'. c #FDC2BA",
"]. c #F4CEC5",
"[. c #FECCC4",
"{. c #FDD6CD",
"}. c #FED8CF",
"|. c #FFDBD2",
" X c #FFE0D7",
".X c #FFE4DA",
"XX c None",
/* pixels */
"XXXXXXXXXXXXXXXXXXXXXXXXXXXXXXXXXXXXXXXXXXXXXXXXXXXXXXXXXXXXXXXXXXXXXXXXXXXXXXXXXXXXXXXXXXXXXXXXXXXXXXXXXXXXXXXXXXXXXXXXXXXXXXXX",
"XXXXXXXXXXXXXXXXXXXXXXXXXXXXXXXXXXXXXXXXXXXXXXXXXXXXXXXXXXXXXXXXXXXXXXXXXXXXXXXXXXXXXXXXXXXXXXXXXXXXXXXXXXXXXXXXXXXXXXXXXXXXXXXX",
"XXXXXXXXXXXXXXXXXXXXXXXXXXXXXXXXXXXXXXXXXXXXXXXXXXXXXXXXXXXXXXXXXXXXXXXXXXXXXXXXXXXXXXXXXXXXXXXXXXXXXXXXXXXXXXXXXXXXXXXXXXXXXXXX",
"XXXXXXXXXXXXXXXXXXXXXXXXXXXXXXXXXXXXXXXXXXXXXXXXXXXXXXXXXXXXT T T T T T T T T T T I T T T T T T T T Z  .XXXXXXXXXXXXXXXXXXXXXXXX",
"XXXXXXXXXXXXXXXXXXXXXXXXXXXXXXXXXXXXXXXXXXXXXXXXXXXXXXXXXXXX                                          / XXXXXXXXXXXXXXXXXXXXXXXX",
"XXXXXXXXXXXXXXXXXXXXXXXXXXXXXXXXXXXXXXXXXXXXXXXXXXXXXXXXXXXX; 1 1 : 1 : : 4 1 : 1 : : 1 : 1 : 1 1 5 + ] XXXXXXXXXXXXXXXXXXXXXXXX",
"XXXXXXXXXXXXXXXXXXXXXXXXXXXXXXXXXXXXXXXXXXXXXXXXXXXXXXXXXXXX                                          ^ XXXXXXXXXXXXXXXXXXXXXXXX",
"XXXXXXXXXXXXXXXXXXXXXXXXXXXXXXXXXXXXXXXXXXXXXXXXXXXXXXXXXX0.>.*.&.&.&.&.&.&.&.&.&.&.&.&.&.*.*.*.&.*.>.8.XXXXXXXXXXXXXXXXXXXXXXXX",
"XXXXXXXXXXXXXXXXXXXXXXXXXXXXXXXXXXXXXXXXXXXXXXXXXXQ   :   q.x.l.l.l.l.l.l.l.l.l.l.j.l.l.l.l.l.l.l.l.x.e.* u w p XXXXXXXXXXXXXXXX",
"XXXXXXXXXXXXXXXXXXXXXXXXXXXXXXXXXXXXXXXXXXXXXXXXXXQ   4   e.l.h.k.k.h.h.f.h.k.h.h.h.h.k.k.k.k.f.f.h.l.q.  :   0 XXXXXXXXXXXXXXXX",
"XXXXXXXXXXXXXXXXXXXXXXXXXXXXXXXXXXXXXXXXXXXXXXXXXXQ   :   q.g.p.p.a.f.k.k.h.h.h.h.k.f.a.p.p.p.h.h.h.l.q.        XXXXXXXXXXXXXXXX",
"XXXXXXXXXXXXXXXXXXXXXXXXXXXXXXXXXXXXXXXXXXXXXXXXXXQ   5   S.Q.W.W.W.z.h.h.h.h.k.k.h.D.U.U.U.U.M.h.h.j.y./ } [ } XXXXXXXXXXXXXXXX",
"XXXXXXXXXXXXXXXXXXXXXXXXXXXXXXXXXXXXXXXXXXXXXXXXXXQ   0   E..X|. X|.G.f.k.h.h.j.k.p.U..X X X|.F.f.k.a.U.|.|.|.}.A.XXXXXXXXXXXXXX",
"XXXXXXXXXXXXXXXXXXXXXXXXXXXXXXXXXXXXXXXXXXXXXXXXXXQ   6   Y..X}.|.|.F.f.k.h.h.h.k.a.U.|.}.|.|.F.f.k.a.U.|.|.|.|.'     e XXXXXXXX",
"XXXXXXXXXXXXXXXXXXXXXXXXXXXXXXXXXXXXXXXXXXXXXXXXXX!   q   T.|.|.}.}.F.f.k.h.h.h.k.a.U.|.}.|.}.F.f.k.a.U.|.|.|.}.[   . y XXXXXXXX",
"XXXXXXXXXXXXXXXXXXXXXXXXXXXXXXXXXXXXXXXXXXXXXXXXXXY   %   T..X|.|. XF.f.h.h.h.h.k.p.U..X|.|.|.G.f.k.a.U.|.}.|.|.[     r XXXXXXXX",
"XXXXXXXXXXXXXXXXXXXXXXXXXXXXXXXXXXXXXXXXXXXXXXXXXX6.o.@.b I.[.(.'.'.D.f.l.h.h.h.l.a.L.'.'.'.'.D.f.k.f.U.|.|.|.|.]   . r XXXXXXXX",
"XXXXXXXXXXXXXXXXXXXXXXXXXXXXXXXXXXXXXXXXXX] { ) ..k.l.k.l.f.a.a.a.a.h.h.h.h.h.h.h.k.h.a.a.a.a.h.h.k.p.U.|.|.|.|.[     r XXXXXXXX",
"XXXXXXXXXXXXXXXXXXXXXXXXXXXXXXXXXXXXXXXX|       , d.k.h.h.k.k.k.l.k.h.h.h.h.h.h.h.h.k.k.k.k.k.k.h.h.a.U.|.|.|.{.'     r XXXXXXXX",
"XXXXXXXXXXXXXXXXXXXXXXXXXXXXXXXXXXXXXXXX|   &   8 i.k.h.h.h.h.h.k.k.h.h.h.h.h.h.h.h.h.h.h.k.h.a.f.f.p.U.|.|.|.|.[   . r XXXXXXXX",
"XXXXXXXXXXXXXXXXXXXXXXXXXXXXXXXXXXXXXXXXX.  .   3 i.j.h.h.h.h.h.h.h.h.h.h.h.h.k.h.h.h.h.h.h.l.G.G.G.D.Q.|.|.}.}.[     r XXXXXXXX",
"XXXXXXXXXXXXXXXXXXXXXXXX/ ( ( ( ( ( { Y 9.d.u.u.u.h.k.h.h.h.h.h.h.h.h.h.h.h.h.h.h.k.h.h.k.f.D.|.|.|.|.|.|.|.|.|.[   . r XXXXXXXX",
"XXXXXXXXXXXXXXXXXXXXXX .            .   2.x.j.l.l.h.h.h.h.k.h.h.h.h.h.k.h.h.h.h.h.h.h.h.h.f.m.}.|.}.|.|.|.|.|.|.'   . r XXXXXXXX",
"XXXXXXXXXXXXXXXXXXXXXXXX= 6 6 6 4 : 9   4.l.h.h.h.h.h.h.h.h.k.h.h.h.h.h.h.h.k.h.h.h.k.k.k.h.F.}.|.|.|.}.|.{.}.{.'     r XXXXXXXX",
"XXXXXXXXXXXXXXXXXXXXXXXX                1.x.h.h.h.h.h.h.j.k.h.h.h.h.h.h.h.h.h.h.h.h.f.a.a.p.m.}.|.|.|.|. X.X|..X[   . r XXXXXXXX",
"XXXXXXXXXXXXXXXXXXXXXXv.B.v.c.7.=.$.&.@.q.l.h.h.h.h.h.h.h.h.h.h.h.h.h.h.k.h.h.h.k.f.J.'.(.(.'.|.|.|.|.|.~.R.~.R.!     r XXXXXXXX",
"XXXXXXXXXXXXXXXX  =   Z..X|.|.}.m.h.l.l.l.h.h.h.h.h.h.h.h.h.h.h.h.h.h.h.h.k.h.h.k.p.Q..X|.|.|.|.|.}.|.].v s d s @     r XXXXXXXX",
"XXXXXXXXXXXXXXXX# 6   V. X{.|.{.m.f.h.h.h.k.k.k.k.h.h.h.h.h.h.h.k.h.h.h.h.h.h.h.k.p.Q..X|.|.|.|.|.}.|.].P V J F :     r XXXXXXXX",
"XXXXXXXXXXXXXXXX# 7   Z..X|.|.|.m.h.h.h.a.a.a.a.f.k.h.h.h.h.k.h.h.h.k.h.h.h.h.h.k.p.W.|.}.|.|.|.|.}.|.].K x B B ;     r XXXXXXXX",
"XXXXXXXXXXXXXXXX# 7   N.{.[.[.[.z.h.h.h.L.K.K.U.F.h.k.h.h.h.h.h.h.h.h.h.h.h.h.h.l.p.Q. X}.|.}.|.|.}.|.].K x S B :     r XXXXXXXX",
"XXXXXXXXXXXXXXXX# ;   1.l.h.k.h.h.h.h.h.{.|.|..X^.p.k.h.h.h.h.h.h.h.h.h.h.h.h.k.k.p.W..X}.|.|.}.|.|.|.].K x B A -     r XXXXXXXX",
"XXXXXXXXXXXXXXXX# ;   <.l.h.h.h.h.h.h.h.[.|.|.|.!.p.k.h.h.h.h.h.h.h.h.h.h.h.h.l.z.a.Q.|.}.|.|.|.|.|. X].K x A B :     r XXXXXXXX",
"XXXXXXXXXXXXXXXX5 3   1.l.h.h.h.h.h.h.h.[.|.}.|.^.a.z.k.h.h.h.h.h.h.h.h.h.k.f.a.f.t.U. X}.|.}.}.|.}.|.].K x B B 2     y XXXXXXXX",
"XXXXXXXXXXXXXXXX      ,.l.h.h.h.h.h.h.h.{..X|..X^.w.a.p.p.h.h.h.h.k.h.h.l.f.G.J.U.H.(.|.}.|.}.|. X X X{.P m S A .     6 XXXXXXXX",
"XXXXXXXXXXXXXX0.,.,.&.q.l.h.h.h.h.h.h.h.Q.(.).(.!.Q.!.!.Q.z.h.h.h.h.h.k.k.p.(..X|. X|.|.|.|.}._.~././.Y.H l h ! ] ~ ~ { XXXXXXXX",
"XXXXXXw   ;   <.x.k.l.l.h.h.h.h.h.h.h.h.a.p.a.w.!..X|.|.}.D.h.k.h.h.h.j.k.p.(.|.}.}.}.|.}.|.}.U < f d s       { XXXXXXXXXXXXXXXX",
"XXXXXXe   :   <.x.h.k.h.h.h.h.h.h.h.h.h.z.z.z.h.^.|.|.|.{.D.h.k.k.k.k.k.k.a.(.|.}.|.|.}.}.|.}.;.z H F V . o   / XXXXXXXXXXXXXXXX",
"XXXXXXe   ;   >.g.p.a.f.h.h.h.h.h.h.h.h.a.p.a.w.Q.|.}.|.}.z.s.a.f.f.a.a.h.t.)..X}.|.}. X|. X}.;.f D A B . O   ( XXXXXXXXXXXXXXXX",
"XXXXXXe   4   8.K.J.J.F.h.h.h.k.h.h.h.h.L.J.K.L.(.|.|.|.}.J.G.H.H.H.H.H.H.F.(..X}.|.}.`._._._.%.h S V N . O   ( XXXXXXXXXXXXXXXX",
"XXXXXXe   6   B..X|..X^.p.k.h.h.h.h.h.h.{.|.|.|.|.}.|.|.|.|.|.|.|.|.|.|.|.|.|.|.}.}.{.U f c g B B B A N   .   ( XXXXXXXXXXXXXXXX",
"XXXXXXe   6   B. X{.|.^.a.k.h.h.h.h.h.h.[.|.}.|.}.|.|.}.|.|.}.|.}.|.}.|.|.|.|.|.}.|.]._ c V V B B B A N . O   ( XXXXXXXXXXXXXXXX",
"XXXXXXe   6   B. X|.|.).p.k.h.h.k.k.k.k.[.|.}.|.}.|.|.|.|.}.|.|.|.|.}.}.}.}.}.}.}.|.{._ c V B B A B B x       ( XXXXXXXXXXXXXXXX",
"XXXXXXe   6   V..X.X.X).p.k.k.k.a.a.a.a.[.|.|.|.}.|.}.|.|.|.|.|.}.|. X X X X.X X|..X|._ h S A A B B B V 6 w o { XXXXXXXXXXXXXXXX",
"XXXXXXe   &   } S.N.V.S.h.h.k.a.!.'.'.'.}.|.|.}.|.|.|.|.}.|.}.}.|.{.P.P.P.P.P.P.P.P.P.L x S n ; : $ 5 XXXXXXXXXXXXXXXXXXXXXXXXXX",
"XXXXXXe       , s d   5.k.h.k.p.'..X|.|.|.|.}.|.|.}.|.}.|.}.|.}.|.].d < < < s < < < s m A A N       = XXXXXXXXXXXXXXXXXXXXXXXXXX",
"XXXXXXe   .   l J J M 3.j.h.z.a.'.|.}.|.}.|.}.|.|.|.|.|.|.|.|.|.|.`.J H J H J J H J H V B A N o .   w XXXXXXXXXXXXXXXXXXXXXXXXXX",
"XXXXXXe   .   8 A S j 3.x.h.z.a.'.|.}.|.|.|.|.|.|.|.|.}.|.|.|.|.|.].B B A A A S A S A S A S m       X XXXXXXXXXXXXXXXXXXXXXXXXXX",
"XXXXXXe   O   8 A S j 3.k.h.k.a.(.|.{.{.}.}.}.}.{.{.}.}.}.}.}.}.|.`.x B A N k k k k k k k k M / Q Q / XXXXXXXXXXXXXXXXXXXXXXXXXX",
"XXXXXXe   .   8 A B B G +.+.+.+.%.:.;.:.:.:.:.:.:.:.:.:.:.:.:.:.:._ B B S k                 a XXXXXXXXXXXXXXXXXXXXXXXXXXXXXXXXXX",
"XXXXXXe   .   8 A B B B z m z z h f f f f f f f f f f f f d f f f g B B B k   . . . . . o   I XXXXXXXXXXXXXXXXXXXXXXXXXXXXXXXXXX",
"XXXXXXw       8 A B B B A S B S S D D D V D D D D D D D S S F S H S B B S k                 a XXXXXXXXXXXXXXXXXXXXXXXXXXXXXXXXXX",
"XXXXXXy # = * 8 A B B A B B B B S B B B B B B B B S B B B B B N N B B B n M i i i i i i p r ~ XXXXXXXXXXXXXXXXXXXXXXXXXXXXXXXXXX",
"XXXXXXXXXXXXXX..@ 2 > : : > : ; m B B B B B B B B B B A B $ . . . + + &   { XXXXXXXXXXXXXXXXXXXXXXXXXXXXXXXXXXXXXXXXXXXXXXXXXXXX",
"XXXXXXXXXXXXXXXX                m B B B B A B B B B B B B .           O   ( XXXXXXXXXXXXXXXXXXXXXXXXXXXXXXXXXXXXXXXXXXXXXXXXXXXX",
"XXXXXXXXXXXXXXXX  o X X X X + O m S B B B B B B B B B B m $ O X O X X #   ] XXXXXXXXXXXXXXXXXXXXXXXXXXXXXXXXXXXXXXXXXXXXXXXXXXXX",
"XXXXXXXXXXXXXXXX                z S B B S S A B S S B S A                 / XXXXXXXXXXXXXXXXXXXXXXXXXXXXXXXXXXXXXXXXXXXXXXXXXXXX",
"XXXXXXXXXXXXXXXXT E E E E E R W C z z N N N N m N N N z N E R E R E E E T XXXXXXXXXXXXXXXXXXXXXXXXXXXXXXXXXXXXXXXXXXXXXXXXXXXXXX",
"XXXXXXXXXXXXXXXXXXXXXXXXXXXXXXXX~   O                   t XXXXXXXXXXXXXXXXXXXXXXXXXXXXXXXXXXXXXXXXXXXXXXXXXXXXXXXXXXXXXXXXXXXXXX",
"XXXXXXXXXXXXXXXXXXXXXXXXXXXXXXXXQ   # o X X X X X . o   y XXXXXXXXXXXXXXXXXXXXXXXXXXXXXXXXXXXXXXXXXXXXXXXXXXXXXXXXXXXXXXXXXXXXXX",
"XXXXXXXXXXXXXXXXXXXXXXXXXXXXXXXXE                       0 XXXXXXXXXXXXXXXXXXXXXXXXXXXXXXXXXXXXXXXXXXXXXXXXXXXXXXXXXXXXXXXXXXXXXX",
"XXXXXXXXXXXXXXXXXXXXXXXXXXXXXXXXXX( { { { { { { { { { { | XXXXXXXXXXXXXXXXXXXXXXXXXXXXXXXXXXXXXXXXXXXXXXXXXXXXXXXXXXXXXXXXXXXXXX",
"XXXXXXXXXXXXXXXXXXXXXXXXXXXXXXXXXXXXXXXXXXXXXXXXXXXXXXXXXXXXXXXXXXXXXXXXXXXXXXXXXXXXXXXXXXXXXXXXXXXXXXXXXXXXXXXXXXXXXXXXXXXXXXXX",
"XXXXXXXXXXXXXXXXXXXXXXXXXXXXXXXXXXXXXXXXXXXXXXXXXXXXXXXXXXXXXXXXXXXXXXXXXXXXXXXXXXXXXXXXXXXXXXXXXXXXXXXXXXXXXXXXXXXXXXXXXXXXXXXX",
"XXXXXXXXXXXXXXXXXXXXXXXXXXXXXXXXXXXXXXXXXXXXXXXXXXXXXXXXXXXXXXXXXXXXXXXXXXXXXXXXXXXXXXXXXXXXXXXXXXXXXXXXXXXXXXXXXXXXXXXXXXXXXXXX"
};
