/* XPM */
static char *_2840_2f5d15d56919caa64d3b869bd7e4d3c381800d080a19e84b18f5812b4906eec6[] = {
/* columns rows colors chars-per-pixel */
"64 64 169 2 ",
"   c #151317",
".  c #171518",
"X  c #181719",
"o  c #191819",
"O  c #2B3D1B",
"+  c #252F20",
"@  c #292F26",
"#  c #263021",
"$  c #2A3126",
"%  c #2E3428",
"&  c #2D421E",
"*  c #31451F",
"=  c #34491F",
"-  c #33541E",
";  c #1F553D",
":  c #2A4524",
">  c #264A2B",
",  c #314620",
"<  c #344B23",
"1  c #36442E",
"2  c #314E2A",
"3  c #365125",
"4  c #395326",
"5  c #355924",
"6  c #3A5D26",
"7  c #33542C",
"8  c #395629",
"9  c #35592B",
"0  c #3C5A2A",
"q  c #254F33",
"w  c #275E37",
"e  c #285E37",
"r  c #265C3F",
"t  c #2C5F38",
"y  c #245236",
"u  c #315F3A",
"i  c #3D632C",
"p  c #3F6B2D",
"a  c #296039",
"s  c #2F6B3E",
"d  c #3D6631",
"f  c #3D6A33",
"g  c #336A3D",
"h  c #3A6C39",
"j  c #3A713D",
"k  c #425F26",
"l  c #425B2F",
"z  c #42642C",
"x  c #426A2E",
"c  c #4A6B2F",
"v  c #436025",
"b  c #49702E",
"n  c #436D34",
"m  c #4F6E30",
"M  c #496939",
"N  c #446434",
"B  c #467235",
"V  c #4A7533",
"C  c #4D7A36",
"Z  c #41743C",
"A  c #4B753C",
"S  c #4C7B3A",
"D  c #517C3E",
"F  c #403F41",
"G  c #1E5D44",
"H  c #1C765D",
"J  c #2F6843",
"K  c #20644B",
"L  c #346F42",
"P  c #2C754E",
"I  c #327245",
"U  c #397F4D",
"Y  c #34794A",
"T  c #236C52",
"R  c #237356",
"E  c #2B7751",
"W  c #2A7952",
"Q  c #217159",
"!  c #297D5B",
"~  c #414142",
"^  c #49494A",
"/  c #44434A",
"(  c #4F6D40",
")  c #536D45",
"_  c #587442",
"`  c #547E41",
"'  c #597A47",
"]  c #5A754A",
"[  c #5D7B4A",
"{  c #5E5E6A",
"}  c #605E73",
"|  c #625F79",
" . c #646465",
".. c #686866",
"X. c #68676D",
"o. c #6C6B6C",
"O. c #6F6F71",
"+. c #64617C",
"@. c #737373",
"#. c #4C8036",
"$. c #54853E",
"%. c #58943C",
"&. c #16826E",
"*. c #0E897E",
"=. c #188672",
"-. c #118778",
";. c #218264",
":. c #578245",
">. c #5B8445",
",. c #5E834A",
"<. c #5F884B",
"1. c #5D9343",
"2. c #62844D",
"3. c #628A4C",
"4. c #609348",
"5. c #648651",
"6. c #698756",
"7. c #658A52",
"8. c #6A8D54",
"9. c #6C9155",
"0. c #6D935A",
"q. c #6E9958",
"w. c #72945B",
"e. c #72985C",
"r. c #759761",
"t. c #799D65",
"y. c #3E2D8B",
"u. c #3B328C",
"i. c #3F3495",
"p. c #42369C",
"a. c #43399E",
"s. c #493F9D",
"d. c #453C94",
"f. c #4737A3",
"g. c #4936A5",
"h. c #463AA4",
"j. c #4838A6",
"k. c #473BA9",
"l. c #493CAB",
"z. c #4B3FB2",
"x. c #304D96",
"c. c #295794",
"v. c #295895",
"b. c #2E579F",
"n. c #265B94",
"m. c #3C49A5",
"M. c #305AA3",
"N. c #305FA8",
"B. c #2F60A8",
"V. c #4A409E",
"C. c #4D42A5",
"Z. c #4E41B8",
"A. c #5145BE",
"S. c #5246C3",
"D. c #5548CA",
"F. c #099188",
"G. c #009696",
"H. c #049A95",
"J. c #089891",
"K. c #029599",
"L. c #009B9B",
"P. c #009FA1",
"I. c #00A3A4",
"U. c #00A8A4",
"Y. c #06A2AB",
"T. c #00ACAC",
"R. c #00B2AF",
"E. c #00B1B1",
"W. c None",
/* pixels */
"W.W.W.W.W.W.W.W.W.W.W.W.W.W.W.W.W.W.W.W.W.W.W.W.W.W.W.W.W.W.W.W.W.W.W.W.W.W.W.W.W.W.W.W.W.W.W.W.W.W.W.W.W.W.W.W.W.W.W.W.W.W.W.W.",
"W.W.W.W.W.W.W.W.W.W.W.W.W.W.W.W.W.W.W.W.W.W.W.W.V S B B S S n f i i i i n Z M n W.W.W.W.W.W.W.W.W.W.W.W.W.W.W.W.W.W.W.W.W.W.W.W.",
"W.W.W.W.W.W.W.W.W.W.W.W.W.W.W.W.W.W.W.W.W.W.W.W.B B Z n B B h h p f n n n n n n W.W.W.W.W.W.W.W.W.W.W.W.W.W.W.W.W.W.W.W.W.W.W.W.",
"W.W.W.W.W.W.W.W.W.W.W.W.W.W.W.W.W.W.W.W.W.W.W.W.Z n n n B f S :.%.%.1.1.A n d f W.W.W.W.W.W.W.W.W.W.W.W.W.W.W.W.W.W.W.W.W.W.W.W.",
"W.W.W.W.W.W.W.W.W.W.W.W.W.W.W.W.W.W.W.W.W.W.W.W.n n ( ` Z ` :.:.1.4.4.4.D A n n W.W.W.W.W.W.W.W.W.W.W.W.W.W.W.W.W.W.W.W.W.W.W.W.",
"W.W.W.W.W.W.W.W.W.W.W.W.W.W.W.W.W.W.W.W.W.W.W.W.n n <.0.0.0.t.t.e.e.0.0.3.<.D D W.W.W.W.W.W.W.W.W.W.W.W.W.W.W.W.W.W.W.W.W.W.W.W.",
"W.W.W.W.W.W.W.W.W.W.W.W.W.W.W.W.W.W.W.W.W.W.W.W.A ( 3.8.0.0.0.r.0.0.0.w.<.>.D $.W.W.W.W.W.W.W.W.W.W.W.W.W.W.W.W.W.W.W.W.W.W.W.W.",
"W.W.W.W.W.W.W.W.W.W.W.W.W.W.W.W.W.W.W.W.W.W.W.W.5.5.8.0.7.5.6.6.[ ' 9.w.>.D D D W.W.W.W.W.W.W.W.W.W.W.W.W.W.W.W.W.W.W.W.W.W.W.W.",
"W.W.W.W.W.W.W.W.W.W.W.W.W.W.W.W.W.W.W.W.W.W.W.W.2.6.] ) ) A 6.6.2.,.[ [ M N ` :.W.W.W.W.W.W.W.W.W.W.W.W.W.W.W.W.W.W.W.W.W.W.W.W.",
"W.W.W.W.W.W.W.W.W.W.W.W.W.W.W.W.W.W.W.W.W.W.W.W.8.6.@   . o [ 9.w.w.@       ) 6.W.W.W.W.W.W.W.W.W.W.W.W.W.W.W.W.W.W.W.W.W.W.W.W.",
"W.W.W.W.W.W.W.W.W.W.W.W.W.W.W.W.W.W.W.W.W.W.W.W.2.8.l @ % % D [ 2.5.1 @ O + M ,.W.W.W.W.W.W.W.W.W.W.W.W.W.W.W.W.W.W.W.W.W.W.W.W.",
"W.W.W.W.W.W.W.W.W.W.W.W.W.W.W.W.W.W.W.W.W.W.W.W.C C 2.6.w.w.l 3 3 3 3.q.:.#.p i W.W.W.W.W.W.W.W.W.W.W.W.W.W.W.W.W.W.W.W.W.W.W.W.",
"W.W.W.W.W.W.W.W.W.W.W.W.W.W.W.W.W.W.W.W.W.W.W.W.m C >.2.2.2.z 0 0 0 ` >.S C p p W.W.W.W.W.W.W.W.W.W.W.W.W.W.W.W.W.W.W.W.W.W.W.W.",
"W.W.W.W.W.W.W.W.W.W.W.W.W.W.W.W.W.W.W.W.W.W.W.W.m C V b i z m m m m 6 5 x B p z W.W.W.W.W.W.W.W.W.W.W.W.W.W.W.W.W.W.W.W.W.W.W.W.",
"W.W.W.W.W.W.W.W.W.W.W.W.W.W.W.W.W.W.W.W.W.W.W.W.x x x x i i x c m m 9 5 x b p i W.W.W.W.W.W.W.W.W.W.W.W.W.W.W.W.W.W.W.W.W.W.W.W.",
"W.W.W.W.W.W.W.W.W.W.W.W.W.W.W.W.W.W.W.W.W.W.W.W.- - - - 5 5 5 5 0 z 6 5 i x 6 6 W.W.W.W.W.W.W.W.W.W.W.W.W.W.W.W.W.W.W.W.W.W.W.W.",
"W.W.W.W.W.W.W.W.W.W.W.W.W.y : 2 u r y G T Q W.W.t a w e 9 4 9 9 h h 6 6 g L s L Z W.W.Q K y r u 7 : q W.W.W.W.W.W.W.W.W.W.W.W.W.",
"W.W.W.W.W.W.W.W.W.W.W.W.W.q O < 4 = O * 8 0 V C *.K.L.L.L i V #.h h f h J.P.L.L.U C z 8 < O * 4 < O > W.W.W.W.W.W.W.W.W.W.W.W.W.",
"W.W.W.W.W.W.W.W.W.W.W.W.W.> O < 4 < O , 4 0 B B F.P.P.P.;.E Z V f d E ! L.Y.I.P.Y V 0 4 < O : 4 3 O : W.W.W.W.W.W.W.W.W.W.W.W.W.",
"W.W.W.W.W.W.W.W.W.W.W.W.W.> O < 8 * O * 4 0 V f K.T.U.T.I.P.I v z p J.I.R.R.E.T.P c n 3 < O O 4 4 O : W.W.W.W.W.W.W.W.W.W.W.W.W.",
"W.W.W.W.W.W.W.W.W.W.W.W.W.7 < , < < & = < z V h K.T.T.U.I.P.! E P W H.I.T.E.E.T.P b x 4 < , , < * < 3 W.W.W.W.W.W.W.W.W.W.W.W.W.",
"W.W.W.W.W.W.W.W.W.W.W.W.W.9 4 & O < 4 * O 0 V j P.E.T.E.T.T.I.I.L.L.I.T.T.E.E.T.R b x & O 4 4 O O < 8 W.W.W.W.W.W.W.W.W.W.W.W.W.",
"W.W.W.W.W.W.W.W.W.W.W.W.W.8 3 O O < 3 * O i V I P.E.E.E.T.T.I.L.L.L.U.T.T.E.T.T.H V x * O 4 4 & O < 4 =.W.W.W.W.W.W.W.W.W.W.W.W.",
"W.W.W.W.W.W.W.W.W.W.W.W.W.0 4 & & 4 3 & O x b W P.E.E.E.T.T.I.L.L.K.T.E.E.E.E.T.&.b b = O < 8 , O < 4 L W.W.W.W.W.W.W.W.W.W.W.W.",
"W.W.W.W.W.W.W.W.W.W.W.W.W.W.< O & 4 3 & & n V ! P.T.U.U.T.T.U.I.L.L.T.E.U.U.U.I.-.V B < O < 8 , O < W.W.W.W.W.W.W.W.W.W.W.W.W.W.",
"W.W.W.W.W.W.W.W.W.W.W.W.W.W.W.W.W.W.W.W.W.W.W.W.G.L.L.K.T.E.E.E.L.L.T.T.L.K.K.K.W.W.W.W.W.W.W.W.W.W.W.W.W.W.W.W.W.W.W.W.W.W.W.W.",
"W.W.W.W.W.W.W.W.W.W.W.W.W.W.W.W.W.W.W.W.W.W.W.W.L.L.L.K.T.T.T.T.L.L.T.T.I.P.L.K.W.W.W.W.W.W.W.W.W.W.W.W.W.W.W.W.W.W.W.W.W.W.W.W.",
"W.W.W.W.W.W.W.W.W.W.W.W.W.W.W.W.W.W.W.W.W.W.W.W.L.L.G.L.T.T.T.U.L.L.T.E.T.U.L.L.W.W.W.W.W.W.W.W.W.W.W.W.W.W.W.W.W.W.W.W.W.W.W.W.",
"W.W.W.W.W.W.W.W.W.W.W.W.W.W.W.W.W.W.W.W.W.W.W.W.G.L.I.U.T.T.I.I.P.P.T.E.U.I.P.K.W.W.W.W.W.W.W.W.W.W.W.W.W.W.W.W.W.W.W.W.W.W.W.W.",
"W.W.W.W.W.W.W.W.W.W.W.W.W.W.W.W.W.W.W.W.W.W.W.W.G.L.T.E.E.E.L.K.U.T.T.T.T.U.L.K.W.W.W.W.W.W.W.W.W.W.W.W.W.W.W.W.W.W.W.W.W.W.W.W.",
"W.W.W.W.W.W.W.W.W.W.W.W.W.W.W.W.W.W.W.W.W.W.W.W.K.L.T.T.T.E.L.L.I.T.E.E.T.U.L.L.W.W.W.W.W.W.W.W.W.W.W.W.W.W.W.W.W.W.W.W.W.W.W.W.",
"W.W.W.W.W.W.W.W.W.W.W.W.W.W.W.W.W.W.W.W.W.W.W.W.G.L.T.R.E.T.P.L.I.T.T.E.U.U.L.K.W.W.W.W.W.W.W.W.W.W.W.W.W.W.W.W.W.W.W.W.W.W.W.W.",
"W.W.W.W.W.W.W.W.W.W.W.W.W.W.W.W.W.W.W.W.W.W.W.W.U.R.T.T.E.E.L.L.I.U.T.E.T.T.L.K.W.W.W.W.W.W.W.W.W.W.W.W.W.W.W.W.W.W.W.W.W.W.W.W.",
"W.W.W.W.W.W.W.W.W.W.W.W.W.W.W.W.W.W.W.W.W.W.W.W.T.E.E.R.E.E.L.G.I.T.T.E.E.T.L.K.W.W.W.W.W.W.W.W.W.W.W.W.W.W.W.W.W.W.W.W.W.W.W.W.",
"W.W.W.W.W.W.W.W.W.W.W.W.W.W.W.W.W.W.W.W.W.W.W.W.I.U.I.P.I.I.I.I.T.T.T.T.T.T.L.L.W.W.W.W.W.W.W.W.W.W.W.W.W.W.W.W.W.W.W.W.W.W.W.W.",
"W.W.W.W.W.W.W.W.W.W.W.W.W.W.W.W.W.W.W.W.W.W.W.W.L.L.L.H.L.H.U.T.E.E.T.U.E.T.L.L.W.W.W.W.W.W.W.W.W.W.W.W.W.W.W.W.W.W.W.W.W.W.W.W.",
"W.W.W.W.W.W.W.W.W.W.W.W.W.W.W.W.W.W.W.W.W.W.W.W.b.M.M.M.M.M.M.M.N.B.v.n.Y.T.L.L.W.W.W.W.W.W.W.W.W.W.W.W.W.W.W.W.W.W.W.W.W.W.W.W.",
"W.W.W.W.W.W.W.W.W.W.W.W.W.W.W.W.W.W.W.W.W.W.W.W.f.j.g.g.g.k.g.g.g.f.y.u.Y.R.L.L.W.W.W.W.W.W.W.W.W.W.W.W.W.W.W.W.W.W.W.W.W.W.W.W.",
"W.W.W.W.W.W.W.W.W.W.W.W.W.W.W.W.W.W.W.W.W.W.W.W.h.k.k.k.h.h.h.h.h.h.a.a.x.c.K.K.W.W.W.W.W.W.W.W.W.W.W.W.W.W.W.W.W.W.W.W.W.W.W.W.",
"W.W.W.W.W.W.W.W.W.W.W.W.W.W.W.W.W.W.W.W.W.W.W.W.h.k.h.f.h.h.h.h.h.k.k.k.f.f.m.m.W.W.W.W.W.W.W.W.W.W.W.W.W.W.W.W.W.W.W.W.W.W.W.W.",
"W.W.W.W.W.W.W.W.W.W.W.W.W.W.W.W.W.W.W.W.W.W.W.W.S.D.S.S.S.S.S.A.a.h.h.h.k.h.k.g.W.W.W.W.W.W.W.W.W.W.W.W.W.W.W.W.W.W.W.W.W.W.W.W.",
"W.W.W.W.W.W.W.W.W.W.W.W.W.W.W.W.W.W.W.W.W.W.W.W.k.Z.Z.l.Z.Z.z.l.a.h.h.h.h.h.h.k.W.W.W.W.W.W.W.W.W.W.W.W.W.W.W.W.W.W.W.W.W.W.W.W.",
"W.W.W.W.W.W.W.W.W.W.W.W.W.W.W.W.W.W.W.W.W.W.W.W.p.k.h.h.a.h.h.h.h.k.h.h.h.h.h.h.W.W.W.W.W.W.W.W.W.W.W.W.W.W.W.W.W.W.W.W.W.W.W.W.",
"W.W.W.W.W.W.W.W.W.W.W.W.W.W.W.W.W.W.W.W.W.W.W.W.a.k.h.h.h.h.h.h.h.h.h.h.h.h.h.h.W.W.W.W.W.W.W.W.W.W.W.W.W.W.W.W.W.W.W.W.W.W.W.W.",
"W.W.W.W.W.W.W.W.W.W.W.W.W.W.W.W.W.W.W.W.W.W.W.W.a.k.h.h.h.h.h.f.a.h.h.h.h.h.h.h.W.W.W.W.W.W.W.W.W.W.W.W.W.W.W.W.W.W.W.W.W.W.W.W.",
"W.W.W.W.W.W.W.W.W.W.W.W.W.W.W.W.W.W.W.W.W.W.W.W.h.l.h.k.h.h.h.h.h.h.h.h.h.k.h.h.W.W.W.W.W.W.W.W.W.W.W.W.W.W.W.W.W.W.W.W.W.W.W.W.",
"W.W.W.W.W.W.W.W.W.W.W.W.W.W.W.W.W.W.W.W.W.W.W.W.a.k.h.k.h.h.h.h.a.h.h.h.h.h.k.h.W.W.W.W.W.W.W.W.W.W.W.W.W.W.W.W.W.W.W.W.W.W.W.W.",
"W.W.W.W.W.W.W.W.W.W.W.W.W.W.W.W.W.W.W.W.W.W.W.W.h.k.h.h.h.h.h.h.h.h.h.h.h.h.h.h.W.W.W.W.W.W.W.W.W.W.W.W.W.W.W.W.W.W.W.W.W.W.W.W.",
"W.W.W.W.W.W.W.W.W.W.W.W.W.W.W.W.W.W.W.W.W.W.W.W.h.k.k.h.h.h.h.h.h.h.h.h.h.h.h.h.W.W.W.W.W.W.W.W.W.W.W.W.W.W.W.W.W.W.W.W.W.W.W.W.",
"W.W.W.W.W.W.W.W.W.W.W.W.W.W.W.W.W.W.W.W.W.W.W.W.p.k.h.k.k.h.k.h.h.h.u.u.u.u.h.h.W.W.W.W.W.W.W.W.W.W.W.W.W.W.W.W.W.W.W.W.W.W.W.W.",
"W.W.W.W.W.W.W.W.W.W.W.W.W.W.W.W.W.W.W.W.W.W.W.W.a.l.d.u.u.u.a.h.a.h.u.u.u.u.h.h.W.W.W.W.W.W.W.W.W.W.W.W.W.W.W.W.W.W.W.W.W.W.W.W.",
"W.W.W.W.W.W.W.W.W.W.W.W.W.W.W.W.W.W.W.W.W.W.W.W.p.l.i.y.u.u.a.h.h.h.a.h.a.h.h.j.W.W.W.W.W.W.W.W.W.W.W.W.W.W.W.W.W.W.W.W.W.W.W.W.",
"W.W.W.W.W.W.W.W.W.W.W.W.W.W.W.W.W.W.W.W.W.W.W.W.a.l.h.h.h.h.h.h.a.h.h.h.h.h.h.h.W.W.W.W.W.W.W.W.W.W.W.W.W.W.W.W.W.W.W.W.W.W.W.W.",
"W.W.W.W.W.W.W.W.W.W.W.W.W.W.W.W.W.W.W.W.W.W.W.W.p.l.k.h.h.h.h.h.h.h.h.h.h.h.h.h.W.W.W.W.W.W.W.W.W.W.W.W.W.W.W.W.W.W.W.W.W.W.W.W.",
"W.W.W.W.W.W.W.W.W.W.W.W.W.W.W.W.W.W.W.W.W.W.W.W.p.l.h.h.h.h.h.h.h.h.h.h.h.h.k.h.W.W.W.W.W.W.W.W.W.W.W.W.W.W.W.W.W.W.W.W.W.W.W.W.",
"W.W.W.W.W.W.W.W.W.W.W.W.W.W.W.W.W.W.W.W.W.W.W.W.h.k.h.h.h.h.h.h.h.h.h.h.h.h.h.k.W.W.W.W.W.W.W.W.W.W.W.W.W.W.W.W.W.W.W.W.W.W.W.W.",
"W.W.W.W.W.W.W.W.W.W.W.W.W.W.W.W.W.W.W.W.W.W.W.W.h.l.h.k.h.h.k.h.h.h.h.h.h.h.h.k.W.W.W.W.W.W.W.W.W.W.W.W.W.W.W.W.W.W.W.W.W.W.W.W.",
"W.W.W.W.W.W.W.W.W.W.W.W.W.W.W.W.W.W.W.W.W.W.W.W.a.l.h.h.h.h.f.h.a.h.h.h.h.h.h.k.W.W.W.W.W.W.W.W.W.W.W.W.W.W.W.W.W.W.W.W.W.W.W.W.",
"W.W.W.W.W.W.W.W.W.W.W.W.W.W.W.W.W.W.W.W.W.W.W.W.d.C.h.V.s.V.s.s.a.h.h.h.h.h.h.k.W.W.W.W.W.W.W.W.W.W.W.W.W.W.W.W.W.W.W.W.W.W.W.W.",
"W.W.W.W.W.W.W.W.W.W.W.W.W.W.W.W.W.W.W.W.W.W.W.W.{ O.X.X.O.X.X.X.+.+.+.} | +.+.+.W.W.W.W.W.W.W.W.W.W.W.W.W.W.W.W.W.W.W.W.W.W.W.W.",
"W.W.W.W.W.W.W.W.W.W.W.W.W.W.W.W.W.W.W.W.W.W.W.W. .O.o.o.X.o.o.....o.o.o.o.o...o.W.W.W.W.W.W.W.W.W.W.W.W.W.W.W.W.W.W.W.W.W.W.W.W.",
"W.W.W.W.W.W.W.W.W.W.W.W.W.W.W.W.W.W.W.W.W.W.W.W. .@.O.O.@.@.O.O...o.o.X.o.o.o.o.W.W.W.W.W.W.W.W.W.W.W.W.W.W.W.W.W.W.W.W.W.W.W.W.",
"W.W.W.W.W.W.W.W.W.W.W.W.W.W.W.W.W.W.W.W.W.W.W.W.W.W.W.W.W.W.W.{ ..O.X.O.o.O.o.O.W.W.W.W.W.W.W.W.W.W.W.W.W.W.W.W.W.W.W.W.W.W.W.W.",
"W.W.W.W.W.W.W.W.W.W.W.W.W.W.W.W.W.W.W.W.W.W.W.W.W.W.W.W.W.W.W.W.F F F F l ^ ^ / W.W.W.W.W.W.W.W.W.W.W.W.W.W.W.W.W.W.W.W.W.W.W.W."
};
