/* XPM */
static char *_0022_089571e59e38023179ed7804a2ffb7a23a824fcf53b30b8c32c4ef27cc756fca[] = {
/* columns rows colors chars-per-pixel */
"64 64 206 2 ",
"   c #000000",
".  c #090000",
"X  c #000A00",
"o  c #080C06",
"O  c #1F0000",
"+  c #011105",
"@  c #04150C",
"#  c #0D160E",
"$  c #03190F",
"%  c #001800",
"&  c #021B12",
"*  c #0A1911",
"=  c #091710",
"-  c #121913",
";  c #191717",
":  c #210000",
">  c #002015",
",  c #02261B",
"<  c #0D241C",
"1  c #002A1E",
"2  c #08281F",
"3  c #14211B",
"4  c #1A231D",
"5  c #00250D",
"6  c #032A21",
"7  c #192520",
"8  c #1B2A25",
"9  c #003324",
"0  c #023729",
"q  c #17362C",
"w  c #232A26",
"e  c #222E2A",
"r  c #262424",
"t  c #26322E",
"y  c #2B3532",
"u  c #2A3935",
"i  c #2B3935",
"p  c #333C39",
"a  c #303834",
"s  c #362D31",
"d  c #004233",
"f  c #034938",
"g  c #00543A",
"h  c #00482E",
"j  c #37423F",
"k  c #035443",
"l  c #005F47",
"z  c #005E4B",
"x  c #3A4542",
"c  c #00614C",
"v  c #006551",
"b  c #006B55",
"n  c #006F59",
"m  c #00735D",
"M  c #1E6A58",
"N  c #017761",
"B  c #007B63",
"V  c #0F7963",
"C  c #177E68",
"Z  c #2F7061",
"A  c #424746",
"S  c #48514F",
"D  c #4E5B59",
"F  c #4D5653",
"G  c #515A57",
"H  c #545D5B",
"J  c #525555",
"K  c #564149",
"L  c #635B5E",
"P  c #46665D",
"I  c #54615E",
"U  c #5B6462",
"Y  c #5B6865",
"T  c #487064",
"R  c #636E6B",
"E  c #616967",
"W  c #65716E",
"Q  c #677271",
"!  c #6B7573",
"~  c #6B7975",
"^  c #747C7A",
"/  c #00846A",
"(  c #00896B",
")  c #008166",
"_  c #008D73",
"`  c #009175",
"'  c #01957A",
"]  c #08967B",
"[  c #019A7E",
"{  c #089A7F",
"}  c #169379",
"|  c #039B81",
" . c #179E84",
".. c #02A286",
"X. c #01A588",
"o. c #00AC8D",
"O. c #00AF90",
"+. c #0BAA93",
"@. c #00B192",
"#. c #00BC9B",
"$. c #17A087",
"%. c #32B99D",
"&. c #3EBAA9",
"*. c #739189",
"=. c #01C29F",
"-. c #01C5A3",
";. c #01C9A6",
":. c #01CDAA",
">. c #09CAAB",
",. c #04D2AE",
"<. c #00DCAD",
"1. c #19CDBC",
"2. c #01DCB5",
"3. c #01DFB9",
"4. c #07D7B4",
"5. c #15D5BB",
"6. c #1BD7BD",
"7. c #01E2BB",
"8. c #0DE3BD",
"9. c #18E2BC",
"0. c #23E1BB",
"q. c #18DDC4",
"w. c #19DFC9",
"e. c #01EAC1",
"r. c #0FE4C4",
"t. c #11E6C7",
"y. c #00F2C6",
"u. c #04F4CA",
"i. c #08F5CE",
"p. c #03F8CE",
"a. c #1CF3CA",
"s. c #1CECD4",
"d. c #1DE7D2",
"f. c #04FBD2",
"g. c #06FBD7",
"h. c #1EF2DA",
"j. c #1BFBDC",
"k. c #14FBD9",
"l. c #04E5D0",
"z. c #24EED7",
"x. c #00FFE5",
"c. c #0FFFE6",
"v. c #1EFCE2",
"b. c #16FFE5",
"n. c #21FEE6",
"m. c #2CFFE6",
"M. c #22FFEB",
"N. c #2DFFE8",
"B. c #3AFFE7",
"V. c #30FFE6",
"C. c #24FFF2",
"Z. c #52F1DD",
"A. c #49F0DA",
"S. c #79ECD3",
"D. c #73EDD4",
"F. c #7DF7DB",
"G. c #44FFE8",
"H. c #5EF9E2",
"J. c #5EFFFE",
"K. c #6FFFEC",
"L. c #7CFFED",
"P. c #76FBE9",
"I. c #64FFFE",
"U. c #6DFCFA",
"Y. c #70FAF7",
"T. c #75FFFE",
"R. c #79FFFF",
"E. c #858B8A",
"W. c #86908E",
"Q. c #8A9190",
"!. c #87A29B",
"~. c #ADB1AF",
"^. c #ADB4B3",
"/. c #B1B7B5",
"(. c #A9AFAE",
"). c #BBC1BF",
"_. c #BDC3C2",
"`. c #B5C2C1",
"'. c #81F6DA",
"]. c #83FFEF",
"[. c #81FFFF",
"{. c #8CFFFF",
"}. c #95FFFF",
"|. c #99FFFF",
" X c #A5FFFF",
".X c #ABFFFF",
"XX c #A8FFF5",
"oX c #B2FFFF",
"OX c #BAFFFE",
"+X c #CFD3D2",
"@X c #D4D9D8",
"#X c #C5FEF6",
"$X c #CAFBF5",
"%X c #C4FFFC",
"&X c #CDFFFE",
"*X c #D3FFFF",
"=X c #DAFFFF",
"-X c #E5E7E7",
";X c #E5E8E7",
":X c #E7E9E9",
">X c #EAECEC",
",X c #E4FFFF",
"<X c #EBFFFF",
"1X c #F4FFFF",
"2X c #FEFFFF",
"3X c None",
/* pixels */
"3X3X3X3X3X3X3X3X3X3X3X3X3X3X3X3X3X3X3X3X3X3X3X3X3X3X3X3X3X3X3X3X3X3X3X3X3X3X3X3X3X3X3X3X3X3X3X3X3X3X3X3X3X3X3X3X3X3X3X3X3X3X3X3X",
"3X3X3X3X3X3X3X3X3X3X3X3X3X3X3X3X3X3X3X3X3X3X3XQ Q Q Q Q Q Q Q Q Q Q Q Q Q Q Q Q ! 3X3X3X3X3X3X3X3X3X3X3X3X3X3X3X3X3X3X3X3X3X3X3X",
"3X3X3X3X3X3X3X3X3X3X3X3X3X3X3X3X3X3X3X3X3X3X~                                   + 3X3X3X3X3X3X3X3X3X3X3X3X3X3X3X3X3X3X3X3X3X3X3X",
"3X3X3X3X3X3X3X3X3X3X3X3X3X3X3X3X3X3X3X3X3X3X3XX * = # * = # * * = * * * * # * @ 4 3X3X3X3X3X3X3X3X3X3X3X3X3X3X3X3X3X3X3X3X3X3X3X",
"3X3X3X3X3X3X3X3X3X3X3X3X3X3X3X3X3X3X3X3X3X3X^   - - # # # # # # # # # # # # # # 4 3X3X3X3X3X3X3X3X3X3X3X3X3X3X3X3X3X3X3X3X3X3X3X",
"3X3X3X3X3X3X3X3X3X3X3X3X3X3X3X3X3X3X3X3X3X3XE.                                    3X3X3X3X3X3X3X3X3X3X3X3X3X3X3X3X3X3X3X3X3X3X3X",
"3X3X3X3X3X3X3X3X3X3X3X3X3X3X3X3X3X3Xj y x   (.>X:X:X:X:X:X:X:X:X:X:X:X:X:X:X:X:X>XQ.  j y S 3X3X3X3X3X3X3X3X3X3X3X3X3X3X3X3X3X3X",
"3X3X3X3X3X3X3X3X3X3X3X3X3X3X3X3X3X3X7   w   /.2X2X2X2X2X2X2X2X2X2X2X2X2X2X2X2X2X2XE.  4   p 3X3X3X3X3X3X3X3X3X3X3X3X3X3X3X3X3X3X",
"3X3X3X3X3X3X3X3X3X3X3X3X3X3X3X3X3X3Xt - y   /.2X2X2X2X2X2X2X2X2X2X2X2X2X2X2X2X2X2XQ.  e + x 3X3X3X3X3X3X3X3X3X3X3X3X3X3X3X3X3X3X",
"3X3X3X3X3X3X3X3X3X3X3X3X3X3X3X3X3X3X        ~.2X2X2X2X2X2X2X2X2X2X2X2X2X2X2X2X2X2XE.  O   s 3X3X3X3X3X3X3X3X3X3X3X3X3X3X3X3X3X3X",
"3X3X3X3X3X3X3X3X3X3X3X3X3X3X3X3X3X3XR R Q G `.1X1X1X1X1X1X1X1X1X1X1X1X1X1X2X2X1X2X!.g M v Z 3X3X3X3X3X3X3X3X3X3X3X3X3X3X3X3X3X3X",
"3X3X3X3X3X3X3X3X3X3X3X3X3XG & y   Q 2X2X2X2X*X{.|.}.|.}.|.}.}.|.|.}.}.}.OX<X,X,X<XF.y.a.i.7.q 7 e & E 3X3X3X3X3X3X3X3X3X3X3X3X3X",
"3X3X3X3X3X3X3X3X3X3X3X3X3XS   3   ~ 2X2X2X2X=X[.}.}.}.}.}.}.}.}.}.}.|.{.OX<X,X,X<XF.y.a.i.7.,   @   U 3X3X3X3X3X3X3X3X3X3X3X3X3X",
"3X3X3X3X3X3X3X3X3X3X3X3X3XH # a   ~ 2X2X2X2X=X{.|.}.}.|.}.|.}.|.|.|.|.}.OX,X,X=X,XF.y.a.f.7.1   *   U 3X3X3X3X3X3X3X3X3X3X3X3X3X",
"3X3X3X3X3X3X3X3X3X3X3X3X3Xx       H 2X2X2X2X=X{.|.|.}.|.}.}.}.}.{.{.{.R.OX<X<X<X1X'.u.a.p.7.9 X *   U 3X3X3X3X3X3X3X3X3X3X3X3X3X",
"3X3X3X3X3X3X3X3X3X3X3X3XW.^././.(.+X1X1X1X1X&X{.|.}.}.}.}.|.}.|.*X*X*X*X%XXXXXXXXXZ.f.j.j.t.1 X *   U 3X3X3X3X3X3X3X3X3X3X3X3X3X",
"3X3X3X3X3X3X3X3XR   X +   >X2X2X2X2X,X,X,X,X%X{.|.}.}.}.|.}.}..X2X2X2X2X#Xx.x.x.x.x.n.n.M.h.9   &   Y 3X3X3X3X3X3X3X3X3X3X3X3X3X",
"3X3X3X3X3X3X3X3XW   * -   :X2X2X2X2X,X,X,X<X%X{.|.}.|.}.}.|.{..X2X2X2X2X#Xx.B.m.B.n.n.n.M.s.9   *   U 3X3X3X3X3X3X3X3X3X3X3X3X3X",
"3X3X3X3X3X3X3X3XW   = -   -X2X2X2X1X,X,X,X,X%X{.}.}.}.|.|.}.}..X2X2X2X2X%Xx.B.N.m.n.n.n.M.h.0 & 6 % Y 3X3X3X3X3X3X3X3X3X3X3X3X3X",
"3X3X3X3X3X3X3X3XW   = -   :X2X2X2X2X<X,X,X<X%X{.}.}.}.}.}.}.{. X2X2X2X2X#Xx.x.x.x.c.n.n.M.s.    .   L 3X3X3X3X3X3X3X3X3X3X3X3X3X",
"3X3X3X3X3X3X3X3XR   = -   -X2X2X2X1X.X.X.X.X*X1X<X<X1X=X*X*X*X=X<X<X<X1X=X#X%X#X&XK.x.m.n.v.,.,.,.4.%.K D G G 3X3X3X3X3X3X3X3X3X",
"3X3X3X3X3X3X3X3XW   = -   -X2X2X2X<X}.}.}.[.*X2X2X2X2X<X,X,X<X,X,X,X=X,X,X<X<X<X<X].x.m.M.v.f.f.f.g.:.  %     3X3X3X3X3X3X3X3X3X",
"3X3X3X3X3X3X3X3X! X 4 4   ;X2X2X2X1X|.}.|.{.*X2X2X2X2X<X,X,X,X,X,X,X,X,X,X,X,X,X<XL.x.m.M.v.u.u.u.p.>.. 6 @ = 3X3X3X3X3X3X3X3X3X",
"3X3X3X3X3X3X3X3X~         -X2X2X2X1X}.{.}.[.*X2X2X2X2X1X,X,X,X,X<X,X,X<X,X,X,X,X<X].x.m.M.v.u.u.u.i.-.  1 + $ 3X3X3X3X3X3X3X3X3X",
"3X3X3X3X3X3X3X3XW.H U U F ;X1X1X1X<X.X.X.X X*X1X1X1X1X,X*X=X=X=X=X=X=X=X=X=X=X=X,XP.g.z.h.j.i.i.i.g.>.  1 + @ 3X3X3X3X3X3X3X3X3X",
"3X3X3X3Xt 7 a   `.2X2X1X2XoX}. X|.OX2X2X2X2X*XI.[.[.R.R.T.T.R.T.T.T.T.T.T.T.R.T.R.&.( { ' X.v.n.n.v.1.  6 + @ 3X3X3X3X3X3X3X3X3X",
"3X3X3X3X3   w   /.2X2X2X2XoX{.|.{.oX2X2X2X2X&XJ.T.T.T.T.T.T.T.T.T.T.T.T.T.T.T.T.T.&.( ] _ | n.n.n.M.1.  6 + @ 3X3X3X3X3X3X3X3X3X",
"3X3X3X3X4 X w   +X2X2X2X2XoX{.|.}.oX2X2X2X2X&XJ.R.T.T.T.T.T.T.T.T.T.T.T.T.T.T.T.R.&.( ] _ X.n.n.v.C.1.  0 , 9 3X3X3X3X3X3X3X3X3X",
"3X3X3X3X7 X w   /.2X2X2X2XoX{.|.{.oX2X2X2X2X&XI.R.T.T.T.T.T.T.T.T.T.T.T.T.T.T.T.R.&.( ] _ ..v.n.n.M.1.        3X3X3X3X3X3X3X3X3X",
"3X3X3X3X7 X w   /.2X2X2X2XoX}.|.}.oX1X1X1X2X&XI.R.T.T.T.T.T.T.T.T.T.T.T.T.T.T.Y.T.&.( ] _ ..v.n.n.M.w._ | { | *.3X3X3X3X3X3X3X3X",
"3X3X3X3X7 X w   +X2X2X2X2XoX{.|.}..X,X,X,X,XoXI.R.T.T.T.T.T.T.T.T.T.T.T.T.T.T.T.R.&.( ] ` ..v.n.v.n.v.p.f.i.g.`   1   p 3X3X3X3X",
"3X3X3X3X7 X w   /.2X2X2X2XoX{.|.{. X,X,X,X<XOXI.R.T.T.T.T.T.T.T.T.T.T.T.T.T.T.T.R.&.( ] _ ..v.M.n.M.j.y.u.u.i._   ,   p 3X3X3X3X",
"3X3X3X3X7 X w   /.2X2X2X2XoX}.|.}..X,X,X,X<XOXI.R.T.T.T.T.T.T.T.T.T.T.T.T.T.T.T.R.&.( ] ( ..j.n.n.n.j.u.u.u.i._   ,   p 3X3X3X3X",
"3X3X3X3X7 X w   +X2X2X2X2X.X[.}.{. X,X<X,X<XOXI.R.T.T.T.T.T.T.T.T.T.T.T.T.T.T.U.T.&.( ] _ ..n.M.M.M.j.p.p.i.f.`   ,   p 3X3X3X3X",
"3X3X3X3X7 X w   /.2X2X2X2X=X&X&X*XOXD.S.S.S.P.T.T.T.T.T.T.T.T.T.T.T.T.T.T.T.T.T.R.&.( ] ` ' +.+.+.+.+...X.X.o.c   &   p 3X3X3X3X",
"3X3X3X3X7 X w   ).2X2X2X2X<X,X,X<X$X2.<.2.<.A.R.Y.T.T.T.T.T.T.T.T.T.T.T.T.T.T.T.R.&.( ] ' ` c l l c c c c z v 0   *   p 3X3X3X3X",
"3X3X3X3X7 X w   ).2X2X2X2X<X,X,X<X$X7.0.9.7.Z.R.T.T.T.T.T.T.T.T.T.T.T.T.T.T.T.T.R.&.( ] ' _ N N m m m m m m m d   $   p 3X3X3X3X",
"3X3X3X3X7 X w   ).2X2X2X2X<X,X,X<X$X7.5.8.2.Z.R.T.T.R.T.R.R.T.T.T.T.T.T.T.T.T.T.R.&.( ] ' _ n b n n n n n n m d   $   p 3X3X3X3X",
"3X3X3X3X7 X w   /.2X2X2X2X,X=X=X=X#X7.9.r.7.Z.Y.Y.Y.Y.Y.Y.Y.Y.Y.Y.Y.Y.Y.Y.Y.Y.Y.Y.&._ | [ ' B N B B N m m m m d   $   p 3X3X3X3X",
"3X3X3X3X4 X w   +X2X2X2X2X].n.G.G.B.v.j.v.v.6.} $. . . . . . . . . . . . . . . . .>.7.2.2.3.2.2.2.3.-.( ' _ ' k   *   p 3X3X3X3X",
"3X3X3X3X7 X w   ).2X2X2X2XP.x.n.c.b.n.M.n.M.5.) ` _ ` ` ` ` ` ` ` ` ` ` ` ` _ ` _ :.7.7.7.7.7.7.7.7.;._ ' ' [ k   &   p 3X3X3X3X",
"3X3X3X3X8 + t   _.2X2X2X2XK.x.m.m.n.v.n.v.M.5.( { ' ' ' ' ' ' ' ' ' ' ' ' ' ' ' ` :.7.7.7.7.7.7.7.7.;._ ` ` ' k . <   p 3X3X3X3X",
"3X3X3X3XX   X   _.2X2X2X2XP.x.m.n.M.M.M.M.C.5.B ` _ _ ( _ _ _ _ _ _ _ _ _ _ ( _ / ,.e.7.7.7.7.7.7.7.;.` [ [ [ k       t 3X3X3X3X",
"3X3X3X3XE E ! Q ^.@X+X+X+XH.x.m.n.j.q.q.q.w.>.o.@.O.@.@.@.o.@.@.@.@.@.o.O.O.@.@.@.=.-.-.-.-.3.7.7.7.=.n B B B T U I H R 3X3X3X3X",
"3X3X3X3X3X3X3X3XE.        l.M.n.M.d.g c c h O.e.7.7.7.7.7.7.7.7.7.7.7.7.7.7.7.7.7.[ k b c m 2.7.7.e.#.        3X3X3X3X3X3X3X3X3X",
"3X3X3X3X3X3X3X3X^ @ w w : d.M.n.M.a.n m m v @.7.2.7.7.7.7.7.7.3.7.7.7.3.7.7.7.3.7.[ v B m ) 3.7.7.7.#.  1 & & 3X3X3X3X3X3X3X3X3X",
"3X3X3X3X3X3X3X3X!   * &   d.M.n.n.d.b m m c @.7.3.7.3.7.7.7.3.7.7.3.7.3.7.7.7.3.7.[ c m b B 3.7.3.e.@.  , X $ 3X3X3X3X3X3X3X3X3X",
"3X3X3X3X3X3X3X3XW   * *   d.M.n.M.s.b m m c @.e.2.7.7.7.7.7.7.7.7.7.7.7.7.7.7.3.7...v m b B 7.7.7.e.#.  , + @ 3X3X3X3X3X3X3X3X3X",
"3X3X3X3X3X3X3X3XW   = &   r.k.k.k.r.b m m z O.e.3.7.3.7.7.7.3.3.7.7.7.7.7.7.7.7.7.[ v m n B @.@.@.#.'   > + @ 3X3X3X3X3X3X3X3X3X",
"3X3X3X3X3X3X3X3XW   $ &   3.p.e.p.3.b n m z @.7.3.7.7.7.7.3.7.7.3.3.7.7.3.3.7.3.7.[ v m n m _ _ _ ` m   $ + @ 3X3X3X3X3X3X3X3X3X",
"3X3X3X3X3X3X3X3XW   = &   3.p.u.i.3.b n m c @.e.3.7.3.7.7.7.7.3.7.7.2.7.7.7.7.3.7.| v m n m ' ' ' [ B   & @ & 3X3X3X3X3X3X3X3X3X",
"3X3X3X3X3X3X3X3XR   X X   3.i.u.g.7.b n m c O.e.3.7.3.7.3.7.7.7.2.7.7.7.7.3.7.3.7.| c m n m ` ' ' ' B   X     3X3X3X3X3X3X3X3X3X",
"3X3X3X3X3X3X3X3X~ e i i r 4.u.e.u.4.b m N c @.7.7.7.3.7.7.3.3.7.7.7.3.7.3.7.7.7.7.[ v m m m _ _ _ ' V r p t u 3X3X3X3X3X3X3X3X3X",
"3X3X3X3X3X3X3X3X3X3X3X3X3XP f k f z ` ` ' ( #.e.3.3.7.7.7.7.7.7.7.7.7.7.7.7.3.3.e.o._ ` ` / 0 9 0 5 Y 3X3X3X3X3X3X3X3X3X3X3X3X3X",
"3X3X3X3X3X3X3X3X3X3X3X3X3Xx   .   0 ' ' ' _ =.7.7.7.7.7.7.7.7.7.3.7.2.7.7.7.7.7.7.o._ ' ' _ @   o   U 3X3X3X3X3X3X3X3X3X3X3X3X3X",
"3X3X3X3X3X3X3X3X3X3X3X3X3XS X < o d _ ` ' ( #.7.3.3.3.3.3.3.3.3.2.7.3.7.3.7.7.7.7.o._ ` ' ( < = -   E 3X3X3X3X3X3X3X3X3X3X3X3X3X",
"3X3X3X3X3X3X3X3X3X3X3X3X3Xj       0 ' ' [ _ =.e.7.e.7.e.e.e.7.e.7.7.7.e.e.7.e.7.e.@.` ' | _         I 3X3X3X3X3X3X3X3X3X3X3X3X3X",
"3X3X3X3X3X3X3X3X3X3X3X3X3XR F G J P / / / B X.;.-.-.-.-.-.-.-.-.-.;.-.-.-.-.-.;.;.' B / / C H G G F 3X3X3X3X3X3X3X3X3X3X3X3X3X3X",
"3X3X3X3X3X3X3X3X3X3X3X3X3X3X3X3X3X3X;                                                     p 3X3X3X3X3X3X3X3X3X3X3X3X3X3X3X3X3X3X",
"3X3X3X3X3X3X3X3X3X3X3X3X3X3X3X3X3X3X8 + $ $ & > > > > > > & > > > > > > > > > > & & $ *   x 3X3X3X3X3X3X3X3X3X3X3X3X3X3X3X3X3X3X",
"3X3X3X3X3X3X3X3X3X3X3X3X3X3X3X3X3X3Xe X = @ @ @ @ @ @ @ @ @ # @ @ @ @ @ @ @ @ @ @ @ @ =   x 3X3X3X3X3X3X3X3X3X3X3X3X3X3X3X3X3X3X",
"3X3X3X3X3X3X3X3X3X3X3X3X3X3X3X3X3X3X3                                                 X   p 3X3X3X3X3X3X3X3X3X3X3X3X3X3X3X3X3X3X",
"3X3X3X3X3X3X3X3X3X3X3X3X3X3X3X3X3X3X3X3X3X3X3X3X3X3X3X3X3X3X3X3X3X3X3X3X3X3X3X3X3X3X3X3X3X3X3X3X3X3X3X3X3X3X3X3X3X3X3X3X3X3X3X3X",
"3X3X3X3X3X3X3X3X3X3X3X3X3X3X3X3X3X3X3X3X3X3X3X3X3X3X3X3X3X3X3X3X3X3X3X3X3X3X3X3X3X3X3X3X3X3X3X3X3X3X3X3X3X3X3X3X3X3X3X3X3X3X3X3X"
};
