/* XPM */
static char *_823_07669b394d7325696ccf259cc464da5dbb9c160271027fff422e8797a3886a4b[] = {
/* columns rows colors chars-per-pixel */
"30 30 40 1 ",
"  c black",
". c #010101",
"X c #020202",
"o c gray1",
"O c #040404",
"+ c gray2",
"@ c #060606",
"# c #070707",
"$ c gray3",
"% c #090909",
"& c gray4",
"* c #0B0B0B",
"= c #0C0C0C",
"- c gray5",
"; c #0E0E0E",
": c gray6",
"> c #101010",
", c #111111",
"< c gray7",
"1 c #131313",
"2 c gray8",
"3 c #151515",
"4 c #161616",
"5 c gray9",
"6 c #181818",
"7 c #191919",
"8 c gray10",
"9 c #1B1B1B",
"0 c gray11",
"q c #1D1D1D",
"w c #1E1E1E",
"e c gray12",
"r c #202020",
"t c gray13",
"y c #222222",
"u c #232323",
"i c gray14",
"p c #252525",
"a c gray15",
"s c None",
/* pixels */
"ssssssssssssssssssssssssssssss",
"ssssssssssssssssssssssssssssss",
"sssssss      sssssssssssssssss",
"sssssssoooooosssssssssssssssss",
"sssss @478887-+sssssssssssssss",
"ssss  #9erree&X  sssssssssssss",
"ssss..$eiapiu*o..sssssssssssss",
"ss <49qruuuuyq873X sssssssssss",
"ss <7wrtuuuuyrew5.  ssssssssss",
"sX 30ppuuuuuuipt7   ssssssssss",
"sX 29iiuuuuuuuiyr653o ssssssss",
"sX 20iiuuuuuuuuyyrq7o  sssssss",
"sX 29yuyuuuuuuuuipt0o  sssssss",
"ss :<,4ruiuuuuuuiir9o  sssssss",
"ssssOX%wupuuuuuuiit0o  sssssss",
"ssss  @0rtyyuuuuiir9o Xsssssss",
"sssss #478tuiiiiiir9o Xsssssss",
"sssssss. O0tpiiiipt0o  sssssss",
"sssssss  o9wtrtrttw8*%%sssssss",
"ssssssss o5900099075,:-sssssss",
"ssssssssss........&>yy9@     s",
"ssssssssss     .. %:ee8-$@O  s",
"sssssssssss    XX %;8851,=%  s",
"sssssssssssssssssssso#,ti7< Xs",
"ssssssssssssssssssss o:eu7< Xs",
"ssssssssssssssssssss X&361; ss",
"ssssssssssssssssssss  X+@+ssss",
"ssssssssssssssssssss      ssss",
"sssssssssssssssssssss sXssssss",
"ssssssssssssssssssssssssssssss"
};
