/* XPM */
static char *_4866_0d492bb2ce6ec9f3cde48eed88b73a8e0521ec57899c7f19c1ae5a942bec863e[] = {
/* columns rows colors chars-per-pixel */
"30 30 43 1 ",
"  c black",
". c #010101",
"X c #020202",
"o c gray1",
"O c #040404",
"+ c gray2",
"@ c #060606",
"# c #070707",
"$ c gray3",
"% c #090909",
"& c gray4",
"* c #0B0B0B",
"= c #0C0C0C",
"- c #0E0E0E",
"; c gray6",
": c #101010",
"> c #111111",
", c gray7",
"< c #131313",
"1 c gray8",
"2 c #151515",
"3 c #161616",
"4 c gray9",
"5 c #181818",
"6 c #191919",
"7 c gray10",
"8 c #1B1B1B",
"9 c gray11",
"0 c #1D1D1D",
"q c #1E1E1E",
"w c gray12",
"e c #202020",
"r c gray13",
"t c #222222",
"y c #232323",
"u c gray14",
"i c gray15",
"p c #272727",
"a c #282828",
"s c gray16",
"d c #2A2A2A",
"f c gray17",
"g c None",
/* pixels */
"gggggggo    OggggX    #ggggggg",
"gggggggO .. +ggggX .. $ggggggg",
"ggggggg     .gggg     Oggggggg",
"gggy12wyrttry011wyrttry022uggg",
"ggg1  2fssssd,  3fssssd;  4ggg",
"ggg2  1spaaps>  2spaaps;  5ggg",
"gggw2<0saaaas911qsaaaas812eggg",
"oO yfssaaaaaassssaaaaaassfr +o",
"   rspaaaaaaaaaaaaaaaaaapsw   ",
" . tsaaaaaaaaaaaaaaaaaaaasw . ",
" . tsaaaaaaaaaaaaaaaaaaaasw . ",
" . tsaaaaaaaaaaaaaaaaaaaasw . ",
" . tsaaaaaaaaaaaaaaaaaaaasw . ",
" . tsaaaaaaaaaaaaaaaaaaaasw . ",
".. rspaaaaaaaaaaaaaaaaaapsw X ",
"   yfssaaaaaaaaaaaaaaaassfe   ",
"00we09rsaaaaaaaaaaaaaaae9qeq90",
"ggg3  1spaaaaaaaaaaaaas-  6ggg",
"ggg<  1daaaaaaaaaaaaaas;  3ggg",
"ggge>,9piiaaaaaaaaaaiip6,,tggg",
"ggggggg@X=paaaaaaaai$X%ggggggg",
"ggggggg. @paaaaaaaai. +ggggggg",
"ggggggg=+-assaaaassp&+;ggggggg",
"gggggggggg3:;tsse;;7gggggggggg",
"gggggggggg*  wss9  ,gggggggggg",
"gggggggggg=  rdfq  ,gggggggggg",
"ggggggggggw36eeee63tgggggggggg",
"ggggggggggggg7  qggggggggggggg",
"ggggggggggggg7  9ggggggggggggg",
"ggggggggggggg7  0ggggggggggggg"
};
