/* XPM */
static char *_5809_e10fcd4c3c45741c4de489f71c0579bb601c474ef5557caf9908c5c146d775df[] = {
/* columns rows colors chars-per-pixel */
"30 30 251 2 ",
"   c black",
".  c #010000",
"X  c #000001",
"o  c #020000",
"O  c #020001",
"+  c #030101",
"@  c #040100",
"#  c #040102",
"$  c #040203",
"%  c #000006",
"&  c #050204",
"*  c #060205",
"=  c #080100",
"-  c #080201",
";  c #090301",
":  c #090302",
">  c #0B0202",
",  c #0A0302",
"<  c #0B0302",
"1  c #0F0505",
"2  c #0D0509",
"3  c #0E060A",
"4  c #0F060B",
"5  c #140502",
"6  c #170906",
"7  c #180C08",
"8  c #1B0C08",
"9  c #1D0C08",
"0  c #1C0C09",
"q  c #210000",
"w  c #350400",
"e  c #22100C",
"r  c #23120D",
"t  c #23120E",
"y  c #24120E",
"u  c #24130E",
"i  c #25130F",
"p  c #27140F",
"a  c #28130E",
"s  c #29130E",
"d  c #2B130E",
"f  c #2A1612",
"g  c #22111B",
"h  c #23131C",
"j  c #24131C",
"k  c #331A14",
"l  c #321B14",
"z  c #331B14",
"x  c #321A15",
"c  c #331A15",
"v  c #331B15",
"b  c #351C15",
"n  c #361C16",
"m  c #39211B",
"M  c #3E211A",
"N  c #3F221B",
"B  c #2A1923",
"V  c #2F1B27",
"C  c #4E0000",
"Z  c #500000",
"A  c #431A09",
"S  c #421A0B",
"D  c #4D1F0B",
"F  c #511600",
"G  c #561E00",
"H  c #671F00",
"J  c #691E00",
"K  c #502C18",
"L  c #59281C",
"P  c #732F00",
"I  c #783100",
"U  c #482921",
"Y  c #4A2B23",
"T  c #4C2D25",
"R  c #4D2E25",
"E  c #4E2F26",
"W  c #552F27",
"Q  c #513027",
"!  c #642F26",
"~  c #69322B",
"^  c #64392F",
"/  c #7D3934",
"(  c #6C432B",
")  c #6E4237",
"_  c #7F4A3D",
"`  c #713C42",
"'  c #78424B",
"]  c #90522D",
"[  c #874237",
"{  c #8A453F",
"}  c #995834",
"|  c #985837",
" . c #814F46",
".. c #8A474E",
"X. c #885043",
"o. c #895043",
"O. c #935648",
"+. c #955849",
"@. c #975849",
"#. c #995A4A",
"$. c #995A4B",
"%. c #9A5A4B",
"&. c #9A5B4B",
"*. c #9A5B4C",
"=. c #9B5B4C",
"-. c #9C5C4C",
";. c #9E5D4D",
":. c #9E5D4E",
">. c #9F5D4E",
",. c #9F5E4E",
"<. c #814B55",
"1. c #99565F",
"2. c #A15F4F",
"3. c #A25F4F",
"4. c #B87349",
"5. c #BA744C",
"6. c #BB754F",
"7. c #A36050",
"8. c #A76251",
"9. c #A66253",
"0. c #A16453",
"q. c #A56655",
"w. c #A56756",
"e. c #A86352",
"r. c #AB6657",
"t. c #AE6859",
"y. c #AC6A59",
"u. c #AD6C5A",
"i. c #B16D5C",
"p. c #B46F5E",
"a. c #B87350",
"s. c #B3705E",
"d. c #B5705E",
"f. c #B5715F",
"g. c #B6715F",
"h. c #B7715F",
"j. c #BE775D",
"k. c #844D6E",
"l. c #9A5662",
"z. c #935A64",
"x. c #885874",
"c. c #925F7C",
"v. c #955C7E",
"b. c #A75D75",
"n. c #B67260",
"m. c #B77361",
"M. c #B87260",
"N. c #BA7563",
"B. c #BC7462",
"V. c #BC7562",
"C. c #BC7663",
"Z. c #BD7764",
"A. c #BE7764",
"S. c #BE7765",
"D. c #BF7860",
"F. c #BE7865",
"G. c #C07963",
"H. c #C17A63",
"J. c #C17964",
"K. c #C07865",
"L. c #C07966",
"P. c #C17966",
"I. c #C17A67",
"U. c #C27A66",
"Y. c #C27A67",
"T. c #C27A68",
"R. c #C27B68",
"E. c #C27A69",
"W. c #C37B69",
"Q. c #C47B68",
"!. c #C47C68",
"~. c #C57C69",
"^. c #C67C69",
"/. c #C67D69",
"(. c #C67D6A",
"). c #C27A6D",
"_. c #C87E6A",
"`. c #C57B70",
"'. c #C67D71",
"]. c #C67D72",
"[. c #C87E70",
"{. c #C97F7A",
"}. c #CA806C",
"|. c #CF826E",
" X c #CD8273",
".X c #A46B8C",
"XX c #B26884",
"oX c #B56F88",
"OX c #B9738E",
"+X c #A96E90",
"@X c #BC7C95",
"#X c #BF7E98",
"$X c #C87E92",
"%X c #C87D95",
"&X c #CC8281",
"*X c #CE8484",
"=X c #D2898F",
"-X c #CE8299",
";X c #D88B9B",
":X c #C480A7",
">X c #C580A8",
",X c #CD86AF",
"<X c #C28FAC",
"1X c #DE8FA3",
"2X c #CF88B2",
"3X c #D38AB5",
"4X c #D58CB8",
"5X c #E090A6",
"6X c #EE96C8",
"7X c #F395CC",
"8X c #F89ECF",
"9X c #FA9CD1",
"0X c #FC9BD5",
"qX c #FC9FD5",
"wX c #FE9FD8",
"eX c #FF9FDA",
"rX c #F8A6D3",
"tX c #FBA4D5",
"yX c #F8AED4",
"uX c #FFA4DB",
"iX c #FFA3DD",
"pX c #FFA5DE",
"aX c #FEABDA",
"sX c #FFACDD",
"dX c #FFACDE",
"fX c #FAB3DA",
"gX c #FFB4DE",
"hX c #F6BEDC",
"jX c #FFA7E1",
"kX c #FFAEE1",
"lX c #FFAFE3",
"zX c #FFAFE4",
"xX c #FEB7E0",
"cX c #FFB2E6",
"vX c #FFB3E7",
"bX c #FFB8E4",
"nX c #FFBBE4",
"mX c #FFB5EB",
"MX c #FFB6EC",
"NX c #FAC6E2",
"BX c #FFC7E6",
"VX c #FFCCE9",
"CX c #FFCCEC",
"ZX c #FFCFEC",
"AX c #FEF0F7",
"SX c #FFF7FB",
"DX c #FFF9FC",
"FX c #FFF9FD",
"GX c #FEFFFF",
"HX c white",
"JX c None",
/* pixels */
"JXJXJXJXJXJXJXh j g 1 = > JXJXJXJXJXJXJXJXJXJXJXJXJXJXJXJXJX",
"JXJXJXJXJXJXJX        X   JXJXJXJXJXJXJXJXJXJXJXJXJXJXJXJXJX",
"JXJXJXJXJXJXJX        X   JXJXJXJXJXJXJXJXJXJXJXJXJXJXJXJXJX",
"JXJXJXJX*   x.3X,X>X` G ! A   5 JXJXJXJXJXJXJXJXJXJXJXJXJXJX",
"JXJXJXB V   .XMXvXsX1.I { L X d 7 JXJXJXJXJXJXJXJXJXJXJXJXJX",
"JXJXJX      k.eX0X7X/ C H q       JXJXJXJXJXJXJXJXJXJXJXJXJX",
"JXJXJXc.+Xv.<XZXVXNX#XXXOXz.(  .) JXJXJXJXJXJXJXJXJXJXJXJXJX",
"& 3   2XlXqXBXHXHXDXgXuXdX1X6. Xw.  u f JXJXJXJXJXJXJXJXJXJX",
"& 4   4XmXpXCXGXHXHXbXjXzX5X5. X0.      JXJXJXJXJXJXJXJXJXJX",
"$ 2   :XtX6XhXFXSXAXyX8XrX;Xa.[.q.m Y Y JXJXJXJXJXJXJXJXJXJX",
"O #   ' l...@XnXxXfX=X{.*X'.J.W.F.s.C.u.T   r JXJXJXJXJXJXJX",
". o % F J Z b.iXwX9X`.4.j.D.E.P.Q.^.|.A.Q   p JXJXJXJXJXJXJX",
". +   ~ [ P oXcXkXaX&XG.].E.U.Y.I.Z.~.f.R   t JXJXJXJXJXJXJX",
"JXJXJXS D w <.-X%X$X).H.T.Y.Y.Y.Y.L._.m.R   u JXJXJXJXJXJXJX",
"JXJXJX      K } ] | V.T.K.P.P.L.P.S./.n.T   y JXJXJXJXJXJXJX",
"JXJXJX; -   ^ t.9.r.Y.(.!.~.~.~.~.R.}.N.E   i JXJXJXJXJXJXJX",
"JXJXJXJX@   W o._ X.i.M.d.h.g.g.h.p.B.y.U   e JXJXJXJXJXJXJX",
"JXJXJXJXJXJXJX    s @.3.-.>.:.;.>.-.7.+.M   8 JXJXJXJXJXJXJX",
"JXJXJXJXJXJXJX    a &.8.2.7.7.7.7.2.e.%.N   9 JXJXJXJXJXJXJX",
"JXJXJXJXJXJXJX6   x O.;.$.=.*.*.=.#.,.O.M   0 JXJXJXJXJXJXJX",
"JXJXJXJXJXJXJXJXJXJXl b z v v c v v n k JXJXJX              ",
"JXJXJXJXJXJXJXJXJXJX                    JXJXJX              ",
"JXJXJXJXJXJXJXJXJXJX: < , , , , , , < , JXJXJX              ",
"JXJXJXJXJXJXJXJXJXJXJXJXJXJXJXJXJXJXJXJX      JXJXJX        ",
"JXJXJXJXJXJXJXJXJXJXJXJXJXJXJXJXJXJXJXJX      JXJXJXJX      ",
"JXJXJXJXJXJXJXJXJXJXJXJXJXJXJXJXJXJXJXJX      JXJXJXJX      ",
"JXJXJXJXJXJXJXJXJXJXJXJXJXJXJXJXJXJXJXJX        JXJXJX      ",
"JXJXJXJXJXJXJXJXJXJXJXJXJXJXJXJXJXJXJXJX              JXJXJX",
"JXJXJXJXJXJXJXJXJXJXJXJXJXJXJXJXJXJXJXJX              JXJXJX",
"JXJXJXJXJXJXJXJXJXJXJXJXJXJXJXJXJXJXJXJX              JXJXJX"
};
