/* XPM */
static char *_0468_63190741813e49ebe7ccb5edd7c7fb3468f190154190885b8b703bff0375536f[] = {
/* columns rows colors chars-per-pixel */
"30 30 230 2 ",
"   c black",
".  c #000101",
"X  c #000202",
"o  c #060000",
"O  c #000505",
"+  c #080000",
"@  c #0E0000",
"#  c #000808",
"$  c #000F0F",
"%  c #100000",
"&  c #330101",
"*  c #3E0101",
"=  c #3F0303",
"-  c #360F0F",
";  c #3E0A0A",
":  c #470000",
">  c #490000",
",  c #4A0000",
"<  c #4D0000",
"1  c #4E0000",
"2  c #4F0000",
"3  c #4E0202",
"4  c #500000",
"5  c #510000",
"6  c #530000",
"7  c #500202",
"8  c #540000",
"9  c #550000",
"0  c #5D0000",
"q  c #600000",
"w  c #640101",
"e  c #690000",
"r  c #6B0000",
"t  c #6B0101",
"y  c #6C0000",
"u  c #6D0000",
"i  c #6D0101",
"p  c #6E0000",
"a  c #6F0000",
"s  c #740101",
"d  c #770000",
"f  c #780000",
"g  c #790101",
"h  c #7C0000",
"j  c #7D0000",
"k  c #7C0101",
"l  c #7D0101",
"z  c #7E0000",
"x  c #7E0101",
"c  c #800101",
"v  c #810101",
"b  c #820000",
"n  c #820101",
"m  c #840000",
"M  c #850000",
"N  c #840101",
"B  c #850101",
"V  c #870000",
"C  c #880000",
"Z  c #8B0000",
"A  c #8C0000",
"S  c #8D0000",
"D  c #8D0101",
"F  c #8E0000",
"G  c #8F0000",
"H  c #8D0303",
"J  c #890505",
"K  c #810808",
"L  c #8F0808",
"P  c #910000",
"I  c #920000",
"U  c #930000",
"Y  c #940000",
"T  c #950101",
"R  c #960000",
"E  c #9A0000",
"W  c #9B0101",
"Q  c #9D0101",
"!  c #9E0000",
"~  c #9E0101",
"^  c #980404",
"/  c #990606",
"(  c #9B0808",
")  c #9F1818",
"_  c #A20000",
"`  c #A90000",
"'  c #AA0000",
"]  c #AD0000",
"[  c #AF0000",
"{  c #B00000",
"}  c #B10000",
"|  c #B00101",
" . c #B10101",
".. c #B20000",
"X. c #B30000",
"o. c #B20101",
"O. c #B50000",
"+. c #B60000",
"@. c #B70000",
"#. c #B50505",
"$. c #BB0000",
"%. c #BE0000",
"&. c #BE0101",
"*. c #BF0D0D",
"=. c #9A2424",
"-. c #9D2727",
";. c #C10000",
":. c #C20000",
">. c #C30000",
",. c #C40000",
"<. c #C50000",
"1. c #C70000",
"2. c #C80000",
"3. c #C90000",
"4. c #CB0101",
"5. c #CF0000",
"6. c #D00000",
"7. c #D10000",
"8. c #D20000",
"9. c #D30000",
"0. c #D40000",
"q. c #D60000",
"w. c #D70000",
"e. c #D80000",
"r. c #D90000",
"t. c #DB0000",
"y. c #DD0000",
"u. c #DE0000",
"i. c #DE0202",
"p. c #DF0202",
"a. c #C01313",
"s. c #E00000",
"d. c #E10000",
"f. c #E20000",
"g. c #E30000",
"h. c #E40000",
"j. c #E50000",
"k. c #E40101",
"l. c #E60000",
"z. c #E70000",
"x. c #E60101",
"c. c #E80000",
"v. c #E90000",
"b. c #EA0000",
"n. c #E80202",
"m. c #EC0000",
"M. c #EE0000",
"N. c #E10909",
"B. c #F00000",
"V. c #F10000",
"C. c #F20000",
"Z. c #F30000",
"A. c #F40000",
"S. c #F50000",
"D. c #F60000",
"F. c #F70000",
"G. c #F80000",
"H. c #F90000",
"J. c #FB0000",
"K. c #FC0000",
"L. c #FD0000",
"P. c #FE0000",
"I. c red",
"U. c #FF0101",
"Y. c #FF0202",
"T. c #FE0303",
"R. c #FF0303",
"E. c #FF0404",
"W. c #FE0505",
"Q. c #FF0505",
"!. c #FE0606",
"~. c #FF0606",
"^. c #FF0808",
"/. c #FF0909",
"(. c #FF0B0B",
"). c #FF0C0C",
"_. c #FF0D0D",
"`. c #E71717",
"'. c #FE1010",
"]. c #FF1010",
"[. c #FF1111",
"{. c #FF1717",
"}. c #E82A2A",
"|. c #EF2C2C",
" X c #F22323",
".X c #F12626",
"XX c #FF2323",
"oX c #FE2828",
"OX c #FF2828",
"+X c #FF2C2C",
"@X c #FF2F2F",
"#X c #EB3232",
"$X c #EB3636",
"%X c #FE3333",
"&X c #E84545",
"*X c #E94A4A",
"=X c #FE4646",
"-X c #FF4A4A",
";X c #FE4B4B",
":X c #FD4E4E",
">X c #FF4F4F",
",X c #F95050",
"<X c #FF5050",
"1X c #FF5151",
"2X c #FE5252",
"3X c #FF5656",
"4X c #FF5757",
"5X c #FF5E5E",
"6X c #FA6161",
"7X c #F86565",
"8X c #FF6767",
"9X c #FF6D6D",
"0X c #FF7979",
"qX c #FE7A7A",
"wX c #FD7D7D",
"eX c #FF8787",
"rX c #FF8A8A",
"tX c #FF8C8C",
"yX c #FC8E8E",
"uX c #FF8E8E",
"iX c #FD9090",
"pX c #FF9898",
"aX c #FF9C9C",
"sX c #FFA1A1",
"dX c #FCA4A4",
"fX c #FFA5A5",
"gX c #FDA6A6",
"hX c #FDA9A9",
"jX c #FFA9A9",
"kX c None",
/* pixels */
"kXkXkXkXkXkXX       kXkXkXkXkXkXkXkXkXX . . . X kXkXkXkXkXkX",
"kXkXkXkXkXkXz m M b d kXkXkXkXkXkXkXkXg v n l s kXkXkXkXkXkX",
"kXkXkXkX- F 3.u.d.0.X.L kXkXkXkXkXkXE $.q.y.7.@.f kXkXkXkXkX",
"kXkXkXkXR a.$X-X4X,X}.$.I kXkXkXkXR :.M.J.I.H.t.' h kXkXkXkX",
"kXkX$ G 9..X7XeXaXyX:Xh.%.K # O D ,.c.L.K.P.P.V.y.$.k kXkXkX",
"kXkXS *. X5XtXsXfXuX>XJ.s.#.J H &.l.K.I.I.I.I.P.G.e.~ w kXkX",
"; U 6.|.6XrXhXgXwX<X@XL.A.v.i.p.m.F.L.I.P.P.I.L.D.f.<.! e   ",
": / c.3XrXsXdXiX2XL.T.).R.I.I.I.I.I.I.I.L.P.I.K.F.c.e.[ u   ",
"< =.&X0XjXjXqX=XoXP.!.^.Y.I.P.P.I.I.I.P.P.I.I.K.A.h.0.] p + ",
"5 -.*X0XsXpX;XP.I.I.T.W.U.I.I.I.I.I.P.P.I.I.I.J.Z.g.0.{ p % ",
"6 ) #X1X9X8X%XP.I.).Q.U.P.P.P.P.P.P.I.I.I.I.I.K.S.l.w...a @ ",
"2 ( `.XX+XOX'.P.(._.E.I.P.P.P.P.P.P.I.I.I.I.I.J.A.j.0.[ p o ",
"> ^ N.[.{.{.]./.~.Y.U.I.I.I.I.I.I.I.I.I.P.P.I.H.B.s.5.' y . ",
"= G <.c.G.I.^._.Y.I.I.I.I.I.I.I.I.I.I.I.I.L.J.Z.c.8.@.P w X ",
"kXkXV >.V.I.R.T.U.I.I.I.I.I.I.I.I.I.I.I.I.L.G.m.s.;.I 9 kXkX",
"kXkX& Q n.U.I.I.I.I.I.I.I.I.I.I.I.I.I.I.I.J.S.j.q.[ r   kXkX",
"kXkX* W k.U.I.I.P.P.I.I.I.I.I.I.P.P.I.I.I.J.D.h.0.` i X kXkX",
"kXkXkXT 4.x.D.I.P.P.P.I.I.I.I.I.P.P.I.L.J.Z.v.9.+.Y t kXkXkX",
"kXkXkXkXl | l.I.I.I.L.L.I.I.P.P.I.I.I.K.G.c.r...m 4 kXkXkXkX",
"kXkXkXkXkXg <.l.D.I.L.L.P.I.P.P.I.L.K.A.v.7...A , kXkXkXkXkX",
"kXkXkXkXkXkXh ..z.I.I.I.L.P.I.I.I.K.G.v.e...M 1 kXkXkXkXkXkX",
"kXkXkXkXkXkXkXj 2.z.D.I.L.L.P.L.J.Z.c.7...A 2 kXkXkXkXkXkXkX",
"kXkXkXkXkXkXkXkXx  .l.I.I.I.L.H.G.b.e.} B 7 kXkXkXkXkXkXkXkX",
"kXkXkXkXkXkXkXkXkXl 1.j.S.L.K.A.v.7...Z 7 kXkXkXkXkXkXkXkXkX",
"kXkXkXkXkXkXkXkXkXkXc o.d.K.L.C.r.{ N 7 kXkXkXkXkXkXkXkXkXkX",
"kXkXkXkXkXkXkXkXkXkXkXl ,.u.l.r.O.Z 3 kXkXkXkXkXkXkXkXkXkXkX",
"kXkXkXkXkXkXkXkXkXkXkXkXS _ $...C 0 kXkXkXkXkXkXkXkXkXkXkXkX",
"kXkXkXkXkXkXkXkXkXkXkXkXkXq C C 8 kXkXkXkXkXkXkXkXkXkXkXkXkX",
"kXkXkXkXkXkXkXkXkXkXkXkXkXkXkXkXkXkXkXkXkXkXkXkXkXkXkXkXkXkX",
"kXkXkXkXkXkXkXkXkXkXkXkXkXkXkXkXkXkXkXkXkXkXkXkXkXkXkXkXkXkX"
};
